<svg width="100" height="100" viewBox="0 0 100 100" fill="none" xmlns="http://www.w3.org/2000/svg">
<path d="M100 0H0V100H100V0Z" fill="#F7DF1E"/>
<path d="M67.1001 78.1243C69.1127 81.4056 71.7311 83.8174 76.3621 83.8174C80.2525 83.8174 82.7377 81.8759 82.7377 79.1933C82.7377 75.9785 80.1843 74.8399 75.9022 72.9697L73.555 71.9641C66.7797 69.082 62.2787 65.4713 62.2787 57.8384C62.2787 50.8072 67.6441 45.4546 76.0291 45.4546C81.9986 45.4546 86.2903 47.5291 89.3829 52.9609L82.0716 57.6483C80.4618 54.7662 78.7252 53.6307 76.0291 53.6307C73.279 53.6307 71.536 55.3727 71.536 57.6483C71.536 60.4608 73.2806 61.5994 77.3089 63.3414L79.6562 64.3454C87.6336 67.7612 92.1377 71.2436 92.1377 79.0729C92.1377 87.5135 85.4973 92.1376 76.5794 92.1376C67.8598 92.1376 62.2264 87.9886 59.47 82.5505L67.1001 78.1243ZM33.9328 78.9367C35.4077 81.5497 36.7495 83.7588 39.9753 83.7588C43.06 83.7588 45.006 82.5537 45.006 77.8678V45.9898H54.3949V77.9945C54.3949 87.702 48.695 92.1202 40.375 92.1202C32.8575 92.1202 28.504 88.2356 26.29 83.5569L33.9328 78.9367Z" fill="black"/>
</svg>
